<svg width="59" height="59" viewBox="0 0 59 59" fill="none" xmlns="http://www.w3.org/2000/svg">
<rect width="59" height="59" rx="7.375" fill="#10173C"/>
<path fill-rule="evenodd" clip-rule="evenodd" d="M24.6222 9.24512V49.7813H37.4585C43.2666 49.7813 46.1727 49.7813 47.976 47.9985C49.7813 46.2178 49.7813 43.348 49.7813 37.6125V21.3875C49.7813 15.652 49.7813 12.7822 47.976 11.0015C46.1727 9.21875 43.2666 9.21875 37.4585 9.21875H25.1357L24.6222 9.24512ZM28.7298 18.3453C28.7298 17.9419 28.8921 17.555 29.181 17.2697C29.4699 16.9845 29.8616 16.8242 30.2702 16.8242H40.5392C40.9477 16.8242 41.3395 16.9845 41.6284 17.2697C41.9172 17.555 42.0795 17.9419 42.0795 18.3453C42.0795 18.7487 41.9172 19.1356 41.6284 19.4209C41.3395 19.7061 40.9477 19.8664 40.5392 19.8664H30.2702C29.8616 19.8664 29.4699 19.7061 29.181 19.4209C28.8921 19.1356 28.7298 18.7487 28.7298 18.3453ZM28.7298 25.4438C28.7298 25.0403 28.8921 24.6534 29.181 24.3682C29.4699 24.0829 29.8616 23.9227 30.2702 23.9227H40.5392C40.9477 23.9227 41.3395 24.0829 41.6284 24.3682C41.9172 24.6534 42.0795 25.0403 42.0795 25.4438C42.0795 25.8472 41.9172 26.2341 41.6284 26.5193C41.3395 26.8046 40.9477 26.9648 40.5392 26.9648H30.2702C29.8616 26.9648 29.4699 26.8046 29.181 26.5193C28.8921 26.2341 28.7298 25.8472 28.7298 25.4438ZM12.8129 19.8664C12.8293 15.1287 12.9793 12.6179 14.6182 11.0015C16.0045 9.63249 18.0398 9.31407 21.5415 9.24106V49.7589C18.0398 49.6859 16.0045 49.3675 14.6182 47.9985C12.9793 46.3821 12.8293 43.8713 12.8149 39.1336H14.8667C15.2752 39.1336 15.667 38.9733 15.9559 38.6881C16.2448 38.4028 16.407 38.0159 16.407 37.6125C16.407 37.2091 16.2448 36.8222 15.9559 36.5369C15.667 36.2517 15.2752 36.0914 14.8667 36.0914H12.8129V31.0211H14.8667C15.2752 31.0211 15.667 30.8608 15.9559 30.5756C16.2448 30.2903 16.407 29.9034 16.407 29.5C16.407 29.0966 16.2448 28.7097 15.9559 28.4244C15.667 28.1392 15.2752 27.9789 14.8667 27.9789H12.8129V22.9086H14.8667C15.2752 22.9086 15.667 22.7483 15.9559 22.4631C16.2448 22.1778 16.407 21.7909 16.407 21.3875C16.407 20.9841 16.2448 20.5972 15.9559 20.3119C15.667 20.0267 15.2752 19.8664 14.8667 19.8664H12.8129ZM12.8129 19.8664H10.7591C10.3506 19.8664 9.95878 20.0267 9.66991 20.3119C9.38104 20.5972 9.21875 20.9841 9.21875 21.3875C9.21875 21.7909 9.38104 22.1778 9.66991 22.4631C9.95878 22.7483 10.3506 22.9086 10.7591 22.9086H12.8129V19.8664ZM12.8129 31.0211H10.7591C10.3506 31.0211 9.95878 30.8608 9.66991 30.5756C9.38104 30.2903 9.21875 29.9034 9.21875 29.5C9.21875 29.0966 9.38104 28.7097 9.66991 28.4244C9.95878 28.1392 10.3506 27.9789 10.7591 27.9789H12.8129V31.0211ZM12.8129 36.0914H10.7591C10.3506 36.0914 9.95878 36.2517 9.66991 36.5369C9.38104 36.8222 9.21875 37.2091 9.21875 37.6125C9.21875 38.0159 9.38104 38.4028 9.66991 38.6881C9.95878 38.9733 10.3506 39.1336 10.7591 39.1336H12.8149L12.8129 36.0914Z" fill="url(#paint0_linear_2642_2)"/>
<defs>
<linearGradient id="paint0_linear_2642_2" x1="12.5" y1="30" x2="50" y2="30" gradientUnits="userSpaceOnUse">
<stop stop-color="#EF7AAD"/>
<stop offset="1" stop-color="#F4A1A4"/>
</linearGradient>
</defs>
</svg>
